<svg width="85" height="75" viewBox="0 0 85 75" fill="none" xmlns="http://www.w3.org/2000/svg">
<g id="avembleem 1" clip-path="url(#clip0_89_381)">
<path id="Vector" d="M30.1123 44.7079C30.1123 41.4891 27.5029 38.8798 24.2842 38.8798C21.0654 38.8798 18.4561 41.4891 18.4561 44.7079C18.4561 47.9266 21.0654 50.536 24.2842 50.536C27.5029 50.536 30.1123 47.9266 30.1123 44.7079Z" fill="#DCD8D1"/>
<path id="Vector_2" d="M12.1387 50.5536V18.2467C12.1387 15.0259 13.418 11.937 15.6953 9.65938C17.9725 7.38174 21.0611 6.10188 24.2819 6.1013C27.5027 6.10188 30.5913 7.38174 32.8686 9.65938C35.1458 11.937 36.4251 15.0259 36.4251 18.2467V50.5536H36.4647C36.6448 56.8659 39.2782 62.8595 43.8058 67.2617C48.3335 71.6638 54.3987 74.1278 60.7136 74.1304C67.1505 74.1315 73.3245 71.5768 77.8786 67.0277C82.4327 62.4786 84.9941 56.3074 85 49.8705V29.211H72.859V55.8969C72.859 59.1175 71.5796 62.2061 69.3023 64.4834C67.0251 66.7607 63.9364 68.0401 60.7158 68.0401C57.4953 68.0401 54.4066 66.7607 52.1293 64.4834C49.852 62.2061 48.5727 59.1175 48.5727 55.8969V23.5878H48.5308C48.3519 17.277 45.7204 11.2844 41.1949 6.88229C36.6694 2.48021 30.6063 0.0153317 24.2929 0.0109863C21.104 0.0109863 17.9463 0.639131 15.0001 1.85955C12.054 3.07997 9.37704 4.86876 7.12222 7.12378C4.86741 9.3788 3.07886 12.0559 1.85871 15.0022C0.638554 17.9484 0.0106971 21.1062 0.0109864 24.2951V50.5513" fill="#DCD8D1"/>
</g>
<defs>
<clipPath id="clip0_89_381">
<rect width="85" height="74.1414" fill="white"/>
</clipPath>
</defs>
</svg>
